<svg xmlns="http://www.w3.org/2000/svg" viewBox="0 0 400 400" height="400" width="400"><g><g fill="#ffffff"><path d="M166.34 127.4c-3.24 -0.42 -32 -0.42 -37.16 0a0.36 0.36 0 0 0 -0.28 0.4 0.4 0.4 0 0 0 0.28 0.28c4.64 0.4 33.86 0.58 37.06 0.16 0.46 -0.04 0.6 -0.78 0.1 -0.84zm135.1 50.04c-0.4 0 -5.54 1.82 -4.18 2.56l1.44 1.2c-0.32 0.72 2.82 4 0.66 11.72 -0.9 -0.62 -0.92 0 -0.8 0.2 3.34 3.44 27.2 22.54 32.52 26 0.48 0.7 3.52 -0.8 4 -0.96a318.16 318.16 0 0 0 30.9 -15.2c3.66 -2 3.62 -9.18 -0.82 -12a132.3 132.3 0 0 0 -14.56 -8.4l6.2 -4.86c0.44 -0.34 0.2 -1.6 -1.48 -0.24a29.52 29.52 0 0 1 -4.14 -19.58c0.24 -0.14 2.92 -1.74 1.74 -2.26 -6 -2.5 -25.88 -9.8 -32 -10.18 -2 -0.14 -18 12.66 -19.5 15.24 -3.2 5.34 -2.22 11.44 0.12 16.82zm-1.6 15.78c2 -2.18 1.38 -8.16 0.42 -10.8 2.74 2.2 24.76 18.8 31.76 23.24 3.78 8 -0.44 11.88 -0.3 12.48 -11.72 -8.14 -21.26 -17.44 -31.88 -24.92zm65.18 -0.9c3.34 1.72 2.58 8.88 0.18 9.72a469.922 469.922 0 0 1 -32.88 16 11.7 11.7 0 0 0 2.3 -6.88l15.4 -6.32c0.28 -0.14 0 -0.52 -0.22 -0.46a136.38 136.38 0 0 0 -15.16 6.1 10 10 0 0 0 -1.74 -5.44c4.7 -1.86 28.72 -14.32 32.12 -12.72zM331.68 172a201.62 201.62 0 0 1 18.44 -13.58 24 24 0 0 0 -0.26 7.38c-0.98 0.32 -13.1 9.2 -13.72 9.68 -0.26 0.2 0 0.62 0.32 0.46l13.54 -9.2c0.42 2.82 2.12 9.24 4.74 10.98 -2.66 2.16 -15.82 12.58 -19.02 12.58a16.88 16.88 0 0 1 -4 -18.3zm-2.62 -17.26c1.4 1.2 -4.4 4.58 -4.62 4.64 -0.66 0.2 -1.1 -0.48 0.32 -1.84 0.72 -0.62 3.36 -3.54 4.3 -2.78zm-10.9 3.34c1 -2 5.16 -5.32 6.92 -6.52a0.804 0.804 0 0 1 0.92 1.32c-1.56 1.2 -5.8 5.18 -6.98 6a0.6 0.6 0 0 1 -0.58 0 0.58 0.58 0 0 1 -0.28 -0.78zm-14.68 3.46a217.5 217.5 0 0 1 25.24 8.54c0.52 0.26 0.34 1.14 -0.28 1.02a220.84 220.84 0 0 1 -25.22 -8.7 0.46 0.46 0 0 1 0.26 -0.86zM302 178.4c9.54 5.38 27.3 12.22 34 13.22 1.34 0.2 12.22 -7.44 14 -8.74 1.16 1.14 10.82 6.6 13.28 8.12 -3.56 0.18 -29.4 12.22 -31.26 13.4 -11.1 -8.3 -22.62 -16.72 -34 -24.62l4 -1.38zm-135.66 -51 0.02 0 -0.02 0zm32.48 -38.12a0.5 0.5 0 0 0 -0.38 0c-1.18 0.72 -8 10 -9.38 11.74 -1.32 -1.8 -2.66 -3.58 -4 -5.32 -0.26 -0.32 -0.8 0 -0.6 0.42 1.34 2.14 2.78 4.2 4.24 6.26 0.24 0.32 0.7 0.16 0.9 -0.1 1.26 -1.6 9.28 -11.28 9.62 -12.38a0.52 0.52 0 0 0 -0.4 -0.62zm-38.14 42c-12 0.24 -25.3 0 -30.46 0.44a0.4 0.4 0 0 0 0 0.8c6.2 0 25.5 0.64 30.46 -0.42 0.42 -0.1 0.34 -0.7 0 -0.82zm0.44 -20.1c0.4 0 0.52 -0.68 0 -0.74 -4 -0.6 -28 0.58 -33.82 1.48a0.4 0.4 0 0 0 0 0.8c7.84 0 25.66 -1.22 33.72 -1.5zm-7.96 4c0.34 0 0.52 -0.68 0 -0.8 -2 -0.5 -22 0 -25.02 0.34a0.36 0.36 0 0 0 -0.3 0.42 0.38 0.38 0 0 0 0.3 0.32c3.86 0.22 22.66 0.36 25.02 -0.28zm55.26 119.1zm-12.62 -108.1c1.1 -1.6 -10.96 -1.02 -11.48 -0.48s0 8.76 0 9.52c0 1.18 11.18 1.16 11.62 0.82a32.4 32.4 0 0 0 0 -9.82zm-0.86 8.96c-1.06 0 -8.92 0.14 -9.56 -0.36 0 -2.82 -0.18 -5.62 -0.28 -8.42l10 0a42 42 0 0 0 -0.16 8.78z" stroke-width="1"></path><path d="M336.8 181.76c2.8 -1.66 5.66 -3.28 8.36 -5.08 0.38 -0.26 0 -0.94 -0.44 -0.7l-8.22 5.32a0.28 0.28 0 0 0 0.3 0.46zm-20.16 21.96c-0.24 -0.16 -0.56 0.22 -0.32 0.42 2 1.74 11.84 8.62 14 10.14 0.28 0.2 0.52 -0.26 0.26 -0.46 -4.2 -3.2 -9.48 -7.42 -13.94 -10.1zm-129.56 -84.5c1.04 0 9.18 0.94 9.1 -0.4s-0.2 -9.04 -0.72 -9.28c-0.14 -1.34 -10.28 -0.36 -11.22 -0.18 -0.58 0 -0.34 7.8 -0.3 8.74 0.06 1.36 2.24 1.08 3.14 1.12zm7.86 -9.22 0 8.42a61.3 61.3 0 0 0 -10.14 -0.2 60.7 60.7 0 0 0 -0.16 -8.22c1.66 0 9.24 0.26 10.3 0zm134.94 100.44a0.28 0.28 0 0 0 0.36 0 0.24 0.24 0 0 0 0 -0.32c-9.16 -6.5 -18.26 -14.32 -27.26 -20.42 -0.26 -0.2 -0.66 0.18 -0.4 0.44 5.04 4.8 20.78 16 27.38 20.4zm25.62 -11.48 0.04 0 -0.04 0zM196.14 96.38a0.36 0.36 0 0 0 -0.44 -0.24 0.36 0.36 0 0 0 -0.26 0.24l0 7 -11.08 0a93.74 93.74 0 0 0 -1.08 -9.62 65.22 65.22 0 0 0 9.38 -0.24 0.32 0.32 0 0 0 0.22 -0.34 0.32 0.32 0 0 0 -0.16 -0.2c-0.74 -0.24 -10 -1.04 -9.72 0.56 -0.92 0 0.42 10 0.42 10 0.48 1.22 2.5 0.8 3.56 0.8s8.42 0.18 9.02 0c0.96 -0.38 0.42 -6.78 0.2 -8z" stroke-width="1"></path><path d="M389.4 277.82q-38.22 2.34 -76.46 4a59.42 59.42 0 0 0 -2 -10.78q38 -1 76 -2.34a0.6 0.6 0 0 0 0.52 -0.5 0.6 0.6 0 0 0 -0.52 -0.66q-38.16 1.42 -76.3 2.34c-6 -20.92 -18.66 -40.82 -33.42 -56.58 -0.46 -5.32 -0.48 -8 -2.76 -13.34 -4.4 -10.1 -9.26 -12.2 -9.14 -9.8a5.84 5.84 0 0 0 0.3 1.86c-0.8 -1 -6.68 -7.12 -7.88 -3.82a6.96 6.96 0 0 0 -6 -0.68c-3.74 -6 -10 -6 -14 -8 -7.64 -4 -4.12 -16.76 1.5 -21.52 0 0 24.14 -0.46 24.16 -0.76 0.44 -5.66 5.26 -91.8 5.26 -91.8 -59.48 -1.18 -123.48 0 -182.52 1.2 -0.4 0 -0.74 0.26 -0.7 0.62 3.56 30.3 12.3 92.32 12.3 92.32 1.44 0.58 132.18 -1.46 140 -1.58a19.48 19.48 0 0 0 -5.12 13.38c0.4 12.6 10.42 7.24 18.62 16.46 -5.32 2.28 -6 9.02 -4 13.84a10.6 10.6 0 0 0 1.46 2.58 11.72 11.72 0 0 0 1.56 5.34c2.56 4.86 7.12 6.54 7.36 7.26 0 11.32 2.38 25.12 4.64 36.16 -7.62 -4 -30.22 -13.54 -53.46 -14.22 1.32 -11.46 11.22 -12.9 9.86 -20.56 4.14 -0.16 8.28 -0.32 12.42 -0.52 1.04 0 -0.1 -3.2 -0.22 -3.74q-2.52 -11.1 -5.06 -22.16c-0.26 -1 -1.42 -7.72 -2.4 -7.72l-12.9 0.24c-2.84 -2.7 -9.5 -3.7 -12.22 -0.56 -4 -7.7 -16.36 -6.58 -16.76 0.9 -3.38 -2.3 -8.4 -2.76 -11.46 0.36 -0.32 0.14 -60.82 0.96 -69.82 1.32l-0.16 0a0.44 0.44 0 0 0 -0.14 0.6c0.16 1.04 -5.06 25.72 -5.68 31.66 0 0.84 9.06 0.72 10 0.72 -12.92 15.14 -24.54 32.22 -28 52.2 -21.8 -0.34 -43.6 -0.88 -65.4 -0.8a0.4 0.4 0 0 0 0 0.8c21.7 0.94 43.46 1.04 65.18 1.2a63.28 63.28 0 0 0 -0.8 12c-21.6 -0.44 -43.2 -1.12 -64.78 -1.48 -0.48 0 -0.56 0.76 0 0.76 21.6 1.1 43.24 1.5 64.88 1.82 0.56 10.86 4.84 24.18 15.48 29.06 4.38 8.6 13.66 16.34 24 14.12 -0.3 1.56 -0.58 3.16 -0.88 4.76 -0.12 0.72 0.96 1.02 1.08 0.3 2.94 -15.84 6 -31.76 11.14 -47.04 0.16 -0.48 -0.56 -0.66 -0.74 -0.2 -5 13.28 -7.82 27.24 -10.42 41.14 -10.58 1.54 -19.02 -5.2 -23.4 -14.32a40 40 0 0 1 -1.68 -31.18c5.46 -14 20 -24 34.28 -30.84a140.34 140.34 0 0 1 46.1 -12.82c1.14 10.68 13.42 14.3 22.78 13.74s14.9 -3.42 15.7 -12.86c0.12 0 33.78 0.74 62.84 20.16 8.54 5.7 16.3 13.02 20.84 22.32 4.44 8.98 6 20 2 29.36 -5.72 13.64 -16.16 15.62 -23.08 16.84a142.28 142.28 0 0 0 -14 -42c-0.18 -0.34 -0.74 -0.12 -0.56 0.24a175.08 175.08 0 0 1 14.42 48.42c0 0.52 1.04 0.66 1.04 0a31.44 31.44 0 0 0 -0.72 -5.44 28.8 28.8 0 0 0 19.44 -10c16 -4 22.98 -21.3 22 -36.54q38.32 -1.56 76.56 -4c0.7 -0.26 0.44 -1.24 -0.16 -1.24zM97.82 146.94c-4 -25.44 -7.18 -50.76 -10.8 -76.22 60 -1.04 121.56 -0.6 180.74 -1.6l-4.62 75.02c-24.98 0.76 -162.1 1.54 -165.32 2.8zm120.6 70.18a5.22 5.22 0 0 0 -2 -2.62 10.56 10.56 0 0 0 1.62 -5.5l1.08 0 1.5 8zm-1.68 -14.66a6.82 6.82 0 0 0 0.94 -0.92c0.48 2.14 0.88 4.28 1.28 6.42l-0.96 0a10.34 10.34 0 0 0 -1.26 -5.5zm13.68 14.14 -9.2 0.4c-0.24 -2.7 -0.76 -5.36 -1.24 -8a73.42 73.42 0 0 0 8.62 -0.22c0.6 2.58 1.22 5.22 1.82 7.82zm-2 -8.74 -8.6 0 -1.44 -7.5 8.3 -0.24zm-2 -8.6 -7.82 0.24a6.32 6.32 0 0 0 -1.62 -5.3c-0.12 -0.6 -0.24 -1.22 -0.4 -1.84l8.24 -0.18zm-3.06 -14.28c0.44 2 0.84 4.14 1.24 6.22l-8.22 0.14a55.72 55.72 0 0 0 -1.62 -6.22zm-7.56 8.48a4.46 4.46 0 0 0 -3.1 -0.22 5.44 5.44 0 0 0 0.22 -0.76l2.64 0zm-2 -8.32a56.28 56.28 0 0 0 1.48 6.22l-2.22 0a8.86 8.86 0 0 0 -1.72 -6.22zm-48.42 0.86 3.86 0a5.72 5.72 0 0 0 -0.8 4.26l-3.4 0.98c0.16 -1.72 0.34 -3.64 0.34 -5.24zm-1.08 0 0 5.58a10.5 10.5 0 0 0 -0.98 0.66l-9.46 0.16a43.84 43.84 0 0 0 -0.18 -6.22zm-4.2 14.5 -6.3 0 0 -7 8.2 -0.14a8 8 0 0 0 -1.9 7.14zm-6.26 9.26 5.46 0a8 8 0 0 0 1.84 4.76 4.66 4.66 0 0 0 -2 4.12l-5.4 0c0.06 -3 0.1 -5.94 0.1 -8.88zm6 -2.42a6 6 0 0 0 -0.38 1.3l-5.52 0 0 -7.22 6.46 0a6.4 6.4 0 0 0 2.24 2.98 6.58 6.58 0 0 0 -2.88 2.94zm-6.7 11.28 -24.78 0c0.26 -3.44 0 -5.6 2.22 -8.56l22.34 -0.26c-0.02 2.94 0.04 5.88 0.14 8.82zm-21.74 -9.66a19.44 19.44 0 0 0 4.6 -7.46l5 0 0 7.34zm10.88 -22.56 10.48 -0.18a57.28 57.28 0 0 0 0 6.22l-10.54 0.18c0 -2.06 0.02 -4.14 0.06 -6.22zm-0.14 7.32 10.58 -0.18 0 7 -10.72 0c0 -2.28 0 -4.54 0.14 -6.82zm-0.14 7.76 10.82 0 0 7.22 -11.26 0.14c0.16 -2.46 0.28 -4.84 0.44 -7.36zm-10 -14.9 9.58 -0.16 -0.22 6.22 -9.76 0.16a39.34 39.34 0 0 0 0.22 -6.22zm-0.48 7.3 9.82 -0.16 -0.18 6.8 -4.9 0c0.24 -1.1 0.68 -2.9 -0.62 -3.5s-2.54 2.4 -4.94 3.48c0.22 -2.2 0.42 -4.4 0.64 -6.6zm-8.56 -7.14 8.26 -0.14a61.16 61.16 0 0 0 -0.54 6.22l-0.68 0c0.86 -2.1 -3.78 -3.46 -7.78 0 0.06 -1.02 0.62 -5.4 0.56 -6.08zm7.46 7.26c-0.14 2.18 -0.26 4.34 -0.4 6.52l-3.12 0c-0.6 -1.76 0 -5.9 1.6 -6.52l1.88 0zm-8.66 -7.2 -0.32 6.2 -3.74 0c-1.48 -3.08 -0.54 -5.42 -2 -6.16zm-0.8 7.32a9.16 9.16 0 0 0 -1.16 1.88l-1.48 -1.82zm-12.78 -7.06 6.42 -0.12c-2 0.96 -2.3 4.36 -2.3 6.22l-3.02 0c-1.02 -0.88 -1.46 0 -2.22 0l1.08 -6.22zm4.44 10.16a7.82 7.82 0 0 1 -2.62 -2.94l2.26 0a20.88 20.88 0 0 0 0.28 2.94zm-6.62 3 0.96 -5.88a13.78 13.78 0 0 0 0.74 6zm2 0.98c0.82 2.74 2 5.24 2.56 8l-6 0.12 1.2 -8.14zm-7.26 -14.12 6.56 0c-0.38 2 -0.74 4.16 -1.1 6.26 -2.18 0 -4.38 0.12 -6.56 0.22a54 54 0 0 0 1.02 -6.48zm-1.24 7.3 6.5 0c-0.3 2 -0.62 4 -0.94 5.86l-6.7 0c0.34 -2 0.7 -3.94 1.06 -5.86zm-1.22 6.56c2.2 0.12 4.4 0.18 6.6 0.22 -0.38 2.7 -0.82 5.44 -1.18 8.16 -2.34 0 -4.68 0.16 -7.02 0.26 0.54 -2.88 1.06 -5.76 1.6 -8.64zm4.5 17.34 -7.72 0c0.5 -2.68 1.02 -5.34 1.56 -8l6.94 0.18a75.76 75.76 0 0 0 -0.86 7.82zm0.56 0 1.18 -8 6.22 0a7.14 7.14 0 0 1 0 1.6l-5.62 6.42zm-13.62 61.46a40.72 40.72 0 0 0 0.46 33.74c-19.36 -13.08 -15.24 -42 -7 -60.48 6.74 -15.14 17.42 -28 28.36 -40.34 1.6 -1.82 -3.58 -14 -3.76 -16.98 -0.12 -2.22 0.8 -2.68 1.62 -1.1s2 3.38 3.62 3.76c0.64 1.88 1.14 1.28 1.06 0.98 -0.68 -3.3 -1.86 -8 0.34 -11.04 1.6 -2.12 1.54 1.78 1.7 2.54 0.38 1.82 2 5.34 3.46 6 -0.5 1.42 0.34 0.92 0.4 0.74 2.84 -7.46 11.52 -6.4 8.72 -4.56a5.62 5.62 0 0 0 -2.7 4.16c-1.02 7.06 4.54 6 8.58 1.08 1.68 -2 1.76 2.3 -0.9 6.64 -2.26 3.68 -5.32 5 -5.68 9.82 -1 11.78 -3.42 25.84 -5.04 36.2 -13.28 6.42 -26.86 15.1 -33.32 28.86zM124 250.36a284.14 284.14 0 0 0 4.18 -30.76l31.02 0c1.16 6.7 9.48 7.6 10.82 18A138.7 138.7 0 0 0 124 250.36zm84.44 -16.14a22.32 22.32 0 0 0 -0.96 4.84c-0.8 8.48 -4.4 11.3 -13.82 12 -10 0.82 -20.84 -2.34 -22.36 -13.12 -1.34 -9.6 -4.42 -8.76 -9.36 -15.48 -1.48 -2 -2.8 -5.72 0 -7.28a12.58 12.58 0 0 0 5.02 3.36c4.32 9.7 5.78 20.88 18.34 22.12 24.28 2.26 18.84 -10.96 26.54 -22.5a13.38 13.38 0 0 0 4 -2.84 5.08 5.08 0 0 1 1.3 6.14c-1.96 4.74 -6.68 6.54 -8.7 12.76zM258 189.36c0.68 1.52 1.38 3.02 2 4.54 -0.98 -1.26 -5.78 -6.5 -7.38 -3.7 -0.82 1.46 0.9 3.64 1.6 4.94a10.62 10.62 0 0 0 -6.7 4.16c-2.56 -9.3 6.48 -13.94 10.48 -9.94zm-9.04 13.62c-0.38 -0.94 -0.78 -1.9 -1.18 -2.84a12.84 12.84 0 0 1 6.74 -4.14 23.22 23.22 0 0 1 2.16 7.38c0.54 5.12 -3.38 1.46 -5.28 -0.3 -0.74 -0.76 -1.98 -1.08 -2.54 -0.1zm43.3 114.82c6.62 -9.28 6.9 -21.26 3.06 -31.74 -5.44 -14.82 -18.38 -25.2 -32 -32.46a244.88 244.88 0 0 1 -5.08 -36.72c0 -1.88 -6.36 -3.16 -8.34 -10.54 -0.36 -1.34 -1.1 -4.86 1.32 -2.34s6.54 4.84 6.36 -0.68c-0.24 -6.54 -4.68 -10.9 -4.28 -12.38 0.5 -1.86 4.2 1.64 4.8 2.24a42.12 42.12 0 0 1 4.24 5.52c0.22 0.32 0.76 0 0.56 -0.3q-0.7 -1.2 -1.44 -2.4c0.32 -0.68 -3.28 -7.04 -2.64 -7.64s3.52 1.48 4.16 2c3.34 2.9 3.5 4.84 4.64 6.34a0.24 0.24 0 0 0 0.16 0 0.28 0.28 0 0 0 0.3 -0.24c-0.12 -1.28 -0.86 -2 -1.22 -2.88s-1.1 -2.86 -0.6 -3.56c0.24 -0.2 1.62 0.82 1.78 0.98a16.58 16.58 0 0 1 3.26 4.36c6.12 10.46 4.28 17.2 5.32 18.22 15.18 17.1 31.4 42.14 34.68 64.74 2.22 15.68 -2.72 33.96 -19.14 39.48z" stroke-width="1"></path><path d="M147.2 100c0.46 -0.14 0.28 -0.8 -0.14 -0.86 -7.28 0.14 -15.02 0 -22.2 0.2 -0.56 0 -0.48 0.86 0 0.94 3.68 0.6 19.14 0.7 22.34 -0.28zm190.94 106.96c2.72 -1.18 16 -6.54 17.58 -7.44a0.28 0.28 0 0 0 0 -0.42 0.32 0.32 0 0 0 -0.3 -0.14c-3.36 0.7 -14.24 5.88 -17.62 7.56 -0.18 0.14 0.06 0.56 0.34 0.44zM204 160l-42.4 0.64c1.82 20.56 42.94 20.88 42.4 -0.64zm0 -44a0.34 0.34 0 0 0 0.32 0.34c6.78 0.16 21.12 0.58 26.54 -0.16 0.44 0 0.3 -0.74 0 -0.74 -7.66 0 -18.72 0 -26.44 0.22a0.34 0.34 0 0 0 -0.42 0.34zm-58 -30c0.56 0 0.32 -0.8 -0.14 -0.88 -13.78 0.4 -28.78 0.7 -42.22 1a0.34 0.34 0 0 0 -0.28 0.4 0.34 0.34 0 0 0 0.28 0.28c9.78 0.7 29.66 -0.36 42.36 -0.8zm7.7 -4.58c0.46 0 0.6 -0.8 0 -0.86 -4.48 -0.54 -48.66 0.18 -51.74 0.86 -0.3 0 -0.28 0.6 0 0.6 11.34 -0.02 38.52 -0.8 51.74 -0.6zM66.76 224.28l0 -0.02 0 0.02zm0.84 0.34a39.28 39.28 0 0 0 3.52 -9.02 6.58 6.58 0 0 0 -1.2 -6.4 15.56 15.56 0 0 0 1.1 -5.74c-0.4 -3.26 -3.86 -3.06 -5.72 -0.56 -7.5 10 -15.78 26 -15.54 38.3 -0.14 0.58 0.16 1.24 0.68 0.76a75.86 75.86 0 0 0 19.12 -31.6c2.5 3.72 -1.36 10.14 -2.8 13.9 -0.18 0.5 0.58 0.8 0.84 0.36zm-17.08 15.76a46 46 0 0 1 0.92 -6.6l3.08 2.22c-1.3 1.44 -2.64 2.94 -4 4.38zm18.58 -32a10.2 10.2 0 0 0 -4.72 -2.22 18.32 18.32 0 0 1 2.4 -3.4c0.9 -0.84 2.62 -1.18 3.14 0.24a10.96 10.96 0 0 1 -0.82 5.34zM120 106.5c-0.88 0.36 -6 8 -6.94 9.34a24.52 24.52 0 0 0 -4 -4.18 0.38 0.38 0 0 0 -0.48 0.14 0.34 0.34 0 0 0 0 0.24 30 30 0 0 0 4 5.18 0.58 0.58 0 0 0 0.86 0l0 -0.1 6.56 -8.96c0.92 -1.3 0.66 -2 0 -1.66zM240 96c0.42 0 0.5 -0.8 0 -0.86a292.22 292.22 0 0 0 -37.44 0.54c-0.42 0 -0.38 0.74 0 0.72 9.44 -0.08 27.14 0.22 37.44 -0.4z" stroke-width="1"></path><path d="M120 118.62c0.8 -0.32 -0.8 -6.28 -1.02 -7.22a0.324 0.324 0 0 0 -0.64 0.1c0.24 2.14 0.48 4.3 0.88 6.4 -3.34 0.26 -6.36 0.24 -9.62 0.38 -0.6 -2.6 -1.12 -6 -2 -8.58a45.12 45.12 0 0 0 7.56 0c1.66 0 1.54 -1.04 0.12 -1.02 -0.84 0 -8 -0.14 -8 0.72 -0.94 0 1.04 8.38 1.16 8.94a0.48 0.48 0 0 0 0.42 0.38c0.24 1.04 10.76 0.88 11.14 -0.1zm121.12 -7.02a0.36 0.36 0 0 0 -0.34 -0.28c-12.12 -0.32 -25.08 0.26 -37.36 0.24 -0.36 0 -0.38 0.6 0 0.64 10.76 0.72 27.4 1.16 37.44 -0.16a0.38 0.38 0 0 0 0.26 -0.44zm-131.98 -7.44a57.58 57.58 0 0 0 8.4 -0.38c1.74 0.44 -0.92 -10.48 -1.24 -10.98a0.48 0.48 0 0 0 -0.5 -0.28c-1.8 0 -10.16 0 -11.34 0.26 -1.44 -1.16 0.66 8.7 0.96 9.88 0.58 1.98 1.86 1.5 3.72 1.5zm-4.44 -10.7a52 52 0 0 0 11.12 0.16l1.28 9.24 -10.48 0.54c0.08 -0.68 -1.68 -8.62 -1.92 -9.94zm126.94 6.74a0.4 0.4 0 0 0 0 -0.8c-2.48 -0.5 -23.8 0.26 -28.22 0.64 -0.34 0 -0.34 0.58 0 0.6 2.4 0.1 25.84 0.16 28.22 -0.44zM63.7 163.64c0.38 0 3.2 -1.6 3.86 1 0.92 3.56 4.52 1.42 5.1 -1.3 0.74 -3.36 -2.46 -6 -6.24 -6 -7.68 0 -5.92 6.66 -2.72 6.3zm2.72 -5.52c4.32 0.14 6.98 4.22 4.36 6.62 -2.24 2 -2 -0.88 -3.08 -2 -2.16 -2 -3.88 0.42 -5.1 -0.6 -2.5 -2 2.28 -4.14 3.82 -4.02zm46.84 -32.58c-3.14 0 -3.26 -0.52 -2.86 2.54 0.12 0.86 0.74 6.94 1.78 7 0.22 0.96 9.2 0.62 10.34 0.28 1.54 0 0 -4.74 0 -5.28 -1.32 -6.96 0.32 -4.8 -9.26 -4.54zm-0.58 9.08c-0.5 -2.52 -0.88 -5.86 -1.6 -8.26a36.76 36.76 0 0 0 9.82 -0.36 50.34 50.34 0 0 0 1.3 8.26c-3.12 0.14 -6.36 0.3 -9.52 0.36zm131.58 -54.38c-3.68 -0.34 -56.68 0 -63.4 0.52a0.34 0.34 0 0 0 -0.28 0.38 0.36 0.36 0 0 0 0.28 0.28c5.7 0.3 59.32 0.16 63.4 -0.3a0.44 0.44 0 0 0 0 -0.88zM154 94.94c0.46 -0.1 0.3 -0.72 -0.1 -0.8l-30.38 0.76a0.32 0.32 0 0 0 -0.28 0.38 0.34 0.34 0 0 0 0.28 0.28c7.62 0.56 23.86 0.72 30.48 -0.62zm120.46 56.22c0.14 1.52 1.66 16.68 2.22 17.78 4 7.8 18.72 8 19.04 -3.54 0.56 -4.8 2.5 -18.58 1.74 -22 0.22 -1.12 1.38 -6 1.6 -8.58 0 -0.42 0.8 -11.84 -0.8 -10.1a63.6 63.6 0 0 0 -5.66 9.02c-0.28 1.22 -0.56 2.42 -0.86 3.62a12.82 12.82 0 0 0 -2.74 -0.7c0 -0.82 -0.6 -4.82 -0.88 -6.42 -1.38 -2.68 -2.8 -5.08 -4 -7.86 -1.7 -4.18 -1.74 -4.26 -2.22 0.34a42 42 0 0 0 0 14.16c-9.06 1.88 -8.12 7.22 -7.46 14.28zm21.88 -22a2.38 2.38 0 0 0 1.86 0.66l0 5.04a6.3 6.3 0 0 1 -4.7 -1.48c0.98 -1.38 2 -2.8 2.84 -4.22zm-2.88 5.26a7.68 7.68 0 0 0 4.54 1.42c-0.66 3.72 -1.32 7.42 -1.84 11.16 -0.68 2.44 -4 3.32 -6.16 3.62 1.32 -5.28 2.32 -10.96 3.46 -16.26zm-4 14.76a12.62 12.62 0 0 0 -0.2 1.52l-4.88 0.12 -2 -18.84a5.8 5.8 0 0 0 5.32 -1.04s1.3 17.94 1.76 18.18zm-6.84 -23.6a2.32 2.32 0 0 0 1.82 -0.28l2.74 4.92a5.8 5.8 0 0 1 -5.08 0.92 25.58 25.58 0 0 1 0.52 -5.62zm13.86 23.04c-0.36 5.04 -1 15.68 -2.3 20.44 -2.3 6.18 -12.32 6.28 -16.74 0 -0.84 -6.94 -1.68 -14 -2.5 -20.84 3.74 5.42 18.28 4.76 21.54 0.34z" stroke-width="1"></path><path d="M27.62 170.66a45.66 45.66 0 0 0 9.58 3.7c-6.38 8.78 11.88 21.3 28.58 14.62 7.66 -3.06 15.32 -12.78 7.82 -19.52 8 -6.46 10.82 -15.78 10.48 -26 -0.52 -15.76 -7.48 -27.36 -23.42 -31.1a39.1 39.1 0 0 0 -23.56 1.82l-3.1 -5.36c0.98 -0.52 2 -1.02 3 -1.46 2.64 -0.9 1.84 -2.84 0.28 -2.26 -30.64 11.18 -37.72 51.48 -9.66 65.56zm9.82 2.3c-0.56 -2 0.94 -4 0.24 -6.18 -1.6 -5.18 -8.3 -2.18 -10 -5.68 -1.86 -3.82 3.1 -4.48 4.1 -7.22a2.86 2.86 0 0 0 -0.52 -2.86c-2.88 -3.6 -9.54 0.2 -7.64 -8.2 1.44 -6.34 7.56 -9.34 12 -6.54s7.1 4.68 12.72 1.4c9.36 -5.5 8.2 6 5.34 9.48 -1.52 1.88 -4.28 1.78 -6.4 2.58 -6.92 2.6 -6.88 7.26 -1.4 8.4 2.12 0.44 4.84 0.24 6.5 1.84 4.5 4.38 -4.8 13.74 -7.74 15.28 -1.58 -0.32 -6.4 -1.26 -7.2 -2.3zm25.38 -58.84c11.78 3.66 18 12.18 19.68 24.36a42.42 42.42 0 0 1 -0.58 15.8c-0.48 0.66 -7.24 2.52 -9.42 -0.28a8.94 8.94 0 0 1 -1.36 -8c1.3 -3.36 5.72 -6.32 4.36 -9.76 -1.88 -4.76 -7.38 1.74 -9.7 0.4 -3.48 -2 3.04 -5.84 -4.4 -7.22 -2.74 -0.5 -4.98 0.62 -7 -2.4 -4.62 -6.92 7.4 -12.92 8.42 -12.96zM40 122.98a0.7 0.7 0 0 0 0.84 0.28 0.72 0.72 0 0 0 0.4 -0.92l-3.64 -7.1a38 38 0 0 1 23.34 -1.6c-10 3.3 -11.18 14.58 -4 16.52 1.52 0.42 8.32 -0.18 7.14 2.72a3.64 3.64 0 0 0 2.14 5.12c2.8 0.5 5.8 -3.72 7.86 -2 3.6 3 -5.8 7.64 -4.2 14.32 1.2 5.12 3.32 6.74 8.52 6a8 8 0 0 0 3.24 -1c-4.3 15.06 -20.38 22 -35.08 20.18 2.96 -2.72 7.56 -8.12 8 -12 0.68 -6.88 -7.22 -5.5 -10.12 -7.02 -4 -2 1.72 -5.48 5.38 -6.28a11.6 11.6 0 0 0 3.44 -1.14c6 -3.68 4.34 -18.48 -4.36 -13.02 -7.44 4.66 -9.74 0.7 -13.2 -1.08 -5.54 -2.82 -13.14 1.62 -13.52 10 -0.22 5.7 4.48 4.48 7.22 6a2.22 2.22 0 0 1 1.4 2.5c-0.64 2 -3.54 2.4 -4.34 4.82a4.42 4.42 0 0 0 1.86 5.16c2.62 1.52 7.26 0.2 8.36 3.82 0.54 1.76 -0.52 3.56 -0.4 5.34a29.28 29.28 0 0 1 -19.16 -24c-1.8 -13.6 6.5 -26.82 18.7 -32.6 1.26 2.32 2.84 4.72 4.18 6.98zm-18 -5.34a42.52 42.52 0 0 1 10.26 -7.82 56.66 56.66 0 0 1 3.06 5.3A33.62 33.62 0 0 0 16 148.62a28.5 28.5 0 0 0 11.5 20C8.38 158 7.58 132.96 22 117.64zm213.46 14.1c-1.72 -0.38 -27.44 -0.5 -31.08 0a0.34 0.34 0 0 0 0 0.68c1.38 0.2 28.26 0.66 31.08 0a0.42 0.42 0 0 0 0 -0.82zm8.54 -46c-19.3 0.22 -44.24 -0.44 -61.64 0 -0.48 0 -0.44 0.68 0 0.72 7.3 0.8 55.76 0.74 61.64 0a0.42 0.42 0 0 0 0.38 -0.48 0.4 0.4 0 0 0 -0.38 -0.24zm-2.14 41.66c-11.7 -0.26 -26.32 0.46 -38.78 0.14 -0.36 0 -0.44 0.52 0 0.56 7.66 0.76 31.64 1.52 38.86 0.12 0.38 -0.1 0.42 -0.82 -0.08 -0.82z" stroke-width="1"></path></g></g></svg>