<svg xmlns="http://www.w3.org/2000/svg" fill="none" viewBox="-0.5 -0.5 14 14" height="14" width="14"><g id="home-2--door-entrance-home-house-roof-round-shelter"><path id="Rectangle 15" stroke="#ffffff" stroke-linecap="round" stroke-linejoin="round" d="M3.562928571428572 11.882h5.874142857142857c0.6221428571428572 0 1.1514285714285715 -0.4531428571428571 1.2452142857142858 -1.0678571428571428 0.15042857142857144 -0.9759285714285714 0.18571428571428572 -1.9657857142857142 0.10492857142857144 -2.9491428571428573h1.1356428571428572a0.4642857142857143 0.4642857142857143 0 0 0 0.39185714285714285 -0.7131428571428572l-0.19685714285714287 -0.3092142857142857a18.571428571428573 18.571428571428573 0 0 0 -4.443214285714286 -4.833214285714286l-0.6128571428571429 -0.4642857142857143a0.9285714285714286 0.9285714285714286 0 0 0 -1.1235714285714287 0l-0.6128571428571429 0.4642857142857143A18.571428571428573 18.571428571428573 0 0 0 0.8821428571428571 6.843571428571429l-0.19685714285714287 0.3092142857142857a0.4642857142857143 0.4642857142857143 0 0 0 0.39185714285714285 0.7131428571428572h1.1365714285714286a12.597000000000001 12.597000000000001 0 0 0 0.10400000000000001 2.9491428571428573c0.09471428571428571 0.6147142857142858 0.6230714285714286 1.0678571428571428 1.2442857142857144 1.0678571428571428Z" stroke-width="1"></path><path id="Vector (Stroke)" stroke="#ffffff" stroke-linecap="round" stroke-linejoin="round" d="M6.5 7.511214285714287c0.8552142857142858 0 1.548857142857143 0.6927142857142857 1.548857142857143 1.5479285714285715v2.822857142857143H4.952071428571429v-2.822857142857143c0 -0.8542857142857143 0.6927142857142857 -1.5479285714285715 1.5479285714285715 -1.5479285714285715Z" stroke-width="1"></path></g></svg>