<svg xmlns="http://www.w3.org/2000/svg" fill="none" viewBox="0 0 14 14" height="14" width="14"><g id="instagram"><path id="Subtract" fill="#ffffff" fill-rule="evenodd" d="M3.39 0.787A2.604 2.604 0 0 0 0.786 3.39v6.944a2.604 2.604 0 0 0 2.604 2.604h6.944a2.604 2.604 0 0 0 2.603 -2.604V3.39A2.604 2.604 0 0 0 10.334 0.787H3.39Zm7.693 2.607a0.75 0.75 0 1 1 -1.5 0 0.75 0.75 0 0 1 1.5 0Zm-4.22 1.388a2.08 2.08 0 1 0 0 4.16 2.08 2.08 0 0 0 0 -4.16Zm-3.081 2.08a3.08 3.08 0 1 1 6.16 0 3.08 3.08 0 0 1 -6.16 0Z" clip-rule="evenodd" stroke-width="1"></path></g></svg>