<svg id="Camada_1" data-name="Camada 1" xmlns="http://www.w3.org/2000/svg" viewBox="0 0 1685.26 266.02"><defs><style>.cls-1{fill:#fff;}</style></defs><path class="cls-1" d="M196.5,265.77H143l-20-34a114.88,114.88,0,0,1-54,13H51.5v21H0V4.27H69c66.5,0,120.5,54,120.5,120a121.15,121.15,0,0,1-29.5,79ZM69,197.77c40,0,73-33,73-73.5,0-40-33-73-73-73H51.5v146.5Z"/><path class="cls-1" d="M485,134.77c0,72-58.5,131-130.5,131-72.5,0-131-59-131-131a130.81,130.81,0,0,1,131-131C426.49,3.77,485,62.27,485,134.77Zm-47,0a83.33,83.33,0,0,0-83.5-83.5c-46.5,0-84,37-84,83.5,0,46,37.5,83.5,84,83.5A83.65,83.65,0,0,0,438,134.77Z"/><path class="cls-1" d="M771,134.77c0,72-58.5,131-130.5,131-72.5,0-131-59-131-131a130.81,130.81,0,0,1,131-131C712.48,3.77,771,62.27,771,134.77Zm-47,0a83.33,83.33,0,0,0-83.5-83.5c-46.5,0-84,37-84,83.5,0,46,37.5,83.5,84,83.5A83.65,83.65,0,0,0,724,134.77Z"/><path class="cls-1" d="M970.48,192.27c0,47.5-37.5,73.5-87,73.5-42,0-71-17-88-41l39-31.5c10.5,15,24.5,26,47.5,26,22,0,36-11,36-26,0-18-14.5-24.5-38.5-35l-13-5.5c-38-16.5-63-36.5-63-79.5,0-39.5,30-69.5,77-69.5,29.5,0,52,9.5,68.5,33l-37.5,31c-8.5-13-17.5-18-31-18-15.5,0-25.5,10-25.5,22.5,0,16,10,22,32.5,32l13,5.5C945.48,128.77,970.48,148.27,970.48,192.27Z"/><path class="cls-1" d="M1189,55.27h-76.5v210.5H1061V55.27h-76.5V3.77H1189Z"/><path class="cls-1" d="M1402.48,214.27v51.5H1222V4.27h172v51.5h-120.5v79.5H1350v51.5h-76.5v27.5Z"/><path class="cls-1" d="M1685.26,149.18c-6.36,45.26-35.41,85.21-80.32,103.54A130.8,130.8,0,0,1,1434.14,181c-27.4-67.12,4.45-143.86,71.57-171.27a130.27,130.27,0,0,1,128.54,17.19l-26.64,40.58a82.53,82.53,0,1,0-21,140.35,81.61,81.61,0,0,0,50.32-65.91Z"/><rect class="cls-1" x="458.75" y="73.02" width="76" height="51"/><text/></svg>